<svg width="15" height="17" viewBox="0 0 15 17" xmlns="http://www.w3.org/2000/svg"><title>route</title><g fill="#005CB5" fill-rule="evenodd"><path d="M10.309 4.852c0-1.582-1.26-2.868-2.809-2.868-1.549 0-2.809 1.286-2.809 2.868 0 1.581 1.26 2.868 2.809 2.868 1.549 0 2.809-1.287 2.809-2.868zm-4.988 0c0-1.227.978-2.225 2.179-2.225 1.201 0 2.178.998 2.178 2.225 0 1.226-.977 2.224-2.178 2.224s-2.179-.998-2.179-2.224z"/><path d="M14.363 11.527a2.814 2.814 0 0 0-1.52-1 .315.315 0 0 0-.382.235.322.322 0 0 0 .23.39 2.2 2.2 0 0 1 1.65 2.147c0 1.22-.972 2.211-2.166 2.211h-9.35c-1.195 0-2.166-.992-2.166-2.21 0-1.22.972-2.211 2.166-2.211H5.6a50.108 50.108 0 0 0 1.65 2.376.313.313 0 0 0 .5 0c.011-.015 1.13-1.511 2.234-3.294 1.504-2.43 2.267-4.219 2.267-5.318C12.251 2.176 10.12 0 7.5 0 4.88 0 2.749 2.176 2.749 4.852c0 1.1.762 2.888 2.267 5.318l.17.274h-2.36c-1.542 0-2.796 1.28-2.796 2.855 0 1.574 1.254 2.855 2.796 2.855h9.35c1.542 0 2.796-1.28 2.796-2.855 0-.64-.216-1.27-.608-1.772zM3.38 4.852C3.38 2.532 5.228.644 7.5.644c2.272 0 4.12 1.887 4.12 4.208 0 .961-.748 2.68-2.166 4.97a50.691 50.691 0 0 1-1.954 2.91 50.669 50.669 0 0 1-1.952-2.906C4.13 7.534 3.38 5.814 3.38 4.852z"/><path d="M10.782 10.444a.319.319 0 0 0-.315.322c0 .178.141.322.315.322h.687a.319.319 0 0 0 .315-.322.319.319 0 0 0-.315-.322h-.687z"/></g></svg>