<svg width="40" height="28" viewBox="0 0 40 28" xmlns="http://www.w3.org/2000/svg"><title>quotes copy</title><path d="M8.772 10.153c4.823 0 8.733 3.977 8.733 8.884 0 4.906-3.91 8.884-8.733 8.884S.039 23.943.039 19.037L0 17.767C0 7.956 7.82 0 17.466 0v5.076c-3.332 0-6.465 1.32-8.822 3.718a12.76 12.76 0 0 0-1.24 1.468 8.652 8.652 0 0 1 1.368-.109zm22.456 0c4.823 0 8.733 3.977 8.733 8.884 0 4.906-3.91 8.884-8.733 8.884s-8.733-3.978-8.733-8.884l-.039-1.27C22.456 7.956 30.276 0 39.922 0v5.076c-3.332 0-6.465 1.32-8.822 3.718a12.81 12.81 0 0 0-1.24 1.468 8.652 8.652 0 0 1 1.368-.109z" fill="#0056A5"/></svg>