<svg width="70" height="70" viewBox="0 0 70 70" xmlns="http://www.w3.org/2000/svg"><title>hot-air-balloon</title><g fill="none" fill-rule="evenodd"><path d="M57.386 19.34l-.018-.267-2.247.143.019.28c.019.29.04.58.04.876 0 4.04-1.375 8.015-3.871 11.192l-4.1 5.22a20.769 20.769 0 0 0-4.385 11.64h-2.283v-5.631c0-2.42 1.208-4.397 2.738-6.9 2.292-3.747 5.144-8.412 5.144-16.749h-2.252c0 7.704-2.557 11.885-4.813 15.574-1.647 2.694-3.07 5.02-3.07 8.075v5.63h-6.756v-5.63c0-3.054-1.423-5.38-3.07-8.076-2.256-3.688-4.813-7.87-4.813-15.573 0-11.48 9.211-15.955 11.255-16.806 1.534.659 7.434 3.551 10.013 10.015l2.09-.833c-1.75-4.386-4.772-7.272-7.313-9.056a18.06 18.06 0 0 1 9.715 4.673l1.537-1.645C47.152 1.95 42.222 0 37.062 0h-4.303C21.526 0 12.387 9.139 12.387 20.372a20.46 20.46 0 0 0 4.354 12.585l4.1 5.22a18.49 18.49 0 0 1 3.934 11.372v5.631h-2.252v2.252h2.024l-1.4 2.1a3.706 3.706 0 0 0-.624 2.064 3.72 3.72 0 0 0 2.338 3.447c.415 2.698 2.732 4.777 5.544 4.777h9.01c2.811 0 5.129-2.079 5.543-4.777a3.718 3.718 0 0 0 2.34-3.447c0-.737-.217-1.45-.626-2.063l-1.4-2.1h2.025V55.18h-2.252v-5.63c0-4.106 1.398-8.144 3.933-11.373l4.1-5.22a20.456 20.456 0 0 0 4.354-12.584c0-.348-.022-.69-.046-1.032zM22.611 36.784l-4.1-5.22a18.193 18.193 0 0 1-3.871-11.192c0-9.117 6.775-16.661 15.55-17.916-3.826 2.69-8.794 7.878-8.794 16.688 0 8.337 2.853 13.001 5.144 16.75 1.53 2.503 2.74 4.479 2.74 6.899v5.63h-2.285a20.767 20.767 0 0 0-4.384-11.64zm4.075 26.28h-.445a1.468 1.468 0 0 1-1.22-2.282l1.443-2.165 1.443 2.165a1.466 1.466 0 0 1-1.221 2.281zm16.892 0h-.445a1.468 1.468 0 0 1-1.22-2.282l1.443-2.165 1.442 2.165a1.466 1.466 0 0 1-1.22 2.281zm-.975 2.197c-.452 1.336-1.702 2.306-3.189 2.306h-9.008c-1.487 0-2.737-.97-3.189-2.306 1.799-.26 3.189-1.796 3.189-3.665 0-.737-.217-1.45-.625-2.063l-1.4-2.1h13.058l-1.4 2.1a3.706 3.706 0 0 0-.625 2.063c0 1.87 1.39 3.405 3.189 3.665zm.19-10.08H27.027v-4.505h15.766v4.504z" fill="#333"/><path d="M63.063 20.27H49.55a5.637 5.637 0 0 1-5.631-5.63 5.605 5.605 0 0 1 3.576-5.233 9.018 9.018 0 0 1 8.811-7.155c3.258 0 6.276 1.794 7.86 4.62 3.219.531 5.654 3.333 5.654 6.641a6.763 6.763 0 0 1-6.757 6.757zM19.144 54.054H5.631A5.637 5.637 0 0 1 0 48.424a5.605 5.605 0 0 1 3.577-5.233 9.018 9.018 0 0 1 8.81-7.155c3.258 0 6.276 1.794 7.86 4.62 3.22.531 5.654 3.333 5.654 6.641a6.763 6.763 0 0 1-6.757 6.757z" fill="#0074DE"/></g></svg>