<svg width="59" height="59" viewBox="0 0 59 59" xmlns="http://www.w3.org/2000/svg"><title>pictures</title><g fill="none" fill-rule="evenodd"><path d="M11.352 24.595H9.46v-1.892a2.842 2.842 0 0 1 2.838-2.838 2.842 2.842 0 0 1 2.838 2.838v1.892h-3.784zm7.568 0h-1.892v-1.892a2.842 2.842 0 0 1 2.838-2.838 2.842 2.842 0 0 1 2.838 2.838v1.892H18.92zm-7.568 6.622H9.46v-1.892a2.842 2.842 0 0 1 2.838-2.838 2.842 2.842 0 0 1 2.838 2.838v1.892h-3.784zm7.568 0h-1.892v-1.892a2.842 2.842 0 0 1 2.838-2.838 2.842 2.842 0 0 1 2.838 2.838v1.892H18.92zm7.568 0h-1.892v-1.892a2.842 2.842 0 0 1 2.838-2.838 2.842 2.842 0 0 1 2.838 2.838v1.892h-3.784zm-15.136 6.622H9.46v-1.892a2.842 2.842 0 0 1 2.838-2.838 2.842 2.842 0 0 1 2.838 2.838v1.892h-3.784zm7.568 0h-1.892v-1.892a2.842 2.842 0 0 1 2.838-2.838 2.842 2.842 0 0 1 2.838 2.838v1.892H18.92zm7.568 0h-1.892v-1.892a2.842 2.842 0 0 1 2.838-2.838 2.842 2.842 0 0 1 2.838 2.838v1.892h-3.784z" fill="#0074DE"/><path d="M43.515 3.522V0H.001v52.974h24.454L41.37 58.91l2.083-5.936h.061v-.177L58.91 8.924 43.515 3.522zm12.985 6.56l-.627 1.786-12.358-4.336V5.526L56.5 10.082zM41.623 40.677H1.893V5.676H30.32c.462 6.025 5.277 10.841 11.303 11.303v23.698zM32.212 5.676h9.411v9.411c-4.983-.451-8.96-4.428-9.411-9.411zm9.411-3.784v1.892H1.893V1.892h39.73zm-39.73 49.19V42.57h39.73v8.513H1.893zm38.319 5.416l-10.043-3.524h11.28l-1.237 3.524zm3.303-46.962l11.731 4.116-11.73 33.432V9.536z" fill="#333"/><path d="M24.904 18.92h1.584v-1.893h-7.8l-1.352-4.73h1.584v-1.892H3.785v1.892h1.892v4.73H3.785v1.892h1.892v4.73H3.785v1.892h1.892v4.73H3.785v1.892h1.892v4.73H3.785v1.892H39.73v-1.892h-1.89v-4.73h1.892v-1.892H37.84v-4.73h1.892V23.65H26.256l-1.352-4.73zM7.568 12.297h7.8l1.352 4.73H7.568v-4.73zm0 6.621h15.368l1.352 4.73H7.568v-4.73zm0 6.622h22.935l1.352 4.73H7.568v-4.73zm0 6.622h22.935l1.352 4.73H7.568v-4.73zm28.38 4.73h-2.124l-1.352-4.73h3.475v4.73zm0-6.622h-2.124l-1.352-4.73h3.475v4.73z" fill="#333"/><circle fill="#333" cx="10.406" cy="15.135" r=".946"/><circle fill="#333" cx="14.19" cy="15.135" r=".946"/><path fill="#333" d="M26.475 10.372l2.622-1.086.724 1.748L27.2 12.12zm3.385 5.729l2.007-2.006 1.338 1.337-2.007 2.007zm5.318 3.999l1.087-2.622 1.748.724-1.087 2.622z"/></g></svg>