<svg width="68" height="68" viewBox="0 0 68 68" xmlns="http://www.w3.org/2000/svg"><title>planet-earth</title><g fill="none" fill-rule="evenodd"><path d="M13.75 42.038a8.75 8.75 0 0 0 3.251.626h2.69c1.21 0 2.188.98 2.188 2.188a4.376 4.376 0 0 0 8.752 0v-3.06a7.289 7.289 0 0 0-2.735-5.692 7.287 7.287 0 0 1-2.735-5.69v-8.514a7.28 7.28 0 0 0-1.224-4.042l-3.152-4.727-.229-.535c-7.088 4.45-11.804 12.333-11.804 21.32 0 2.242.297 4.414.846 6.482l.248.082 3.905 1.562zm45.323-8.126c0-11.246-7.38-20.767-17.56-23.99L35.88 17.43a4.38 4.38 0 0 0-.875 2.625v9.482a4.376 4.376 0 0 0 4.376 4.375h8.752a2.187 2.187 0 0 0 2.188-2.187 2.187 2.187 0 1 1 4.375 0v5.557c0 .639-.278 1.246-.763 1.66l-6.13 5.255a2.187 2.187 0 0 0-.764 1.661v9.52c7.217-4.422 12.033-12.38 12.033-21.466z" fill="#0074DE"/><path d="M33.912 7.658c-14.476 0-26.254 11.778-26.254 26.254 0 14.477 11.778 26.255 26.254 26.255 14.477 0 26.255-11.778 26.255-26.255 0-14.476-11.778-26.254-26.255-26.254zm0 50.321c-13.27 0-24.066-10.796-24.066-24.067 0-13.27 10.796-24.066 24.066-24.066 13.271 0 24.067 10.796 24.067 24.066 0 13.271-10.796 24.067-24.067 24.067z" fill="#333"/><path d="M63.27 16.955l-1.893 1.096a31.689 31.689 0 0 1 4.26 15.861c0 17.493-14.232 31.725-31.725 31.725-17.492 0-31.724-14.232-31.724-31.725 0-17.492 14.232-31.724 31.724-31.724 4.984 0 9.914 1.193 14.33 3.432a4.377 4.377 0 0 0-.108.944 4.38 4.38 0 0 0 4.376 4.376 4.38 4.38 0 0 0 4.376-4.376 4.38 4.38 0 0 0-4.376-4.376c-1.303 0-2.46.583-3.264 1.489A33.977 33.977 0 0 0 33.912 0C15.212 0 0 15.212 0 33.912s15.212 33.913 33.912 33.913 33.913-15.213 33.913-33.913a33.858 33.858 0 0 0-4.555-16.957zM52.51 4.375a2.19 2.19 0 0 1 2.188 2.189 2.19 2.19 0 0 1-2.188 2.188 2.19 2.19 0 0 1-2.188-2.188 2.19 2.19 0 0 1 2.188-2.188z" fill="#333"/></g></svg>