<svg width="69" height="70" viewBox="0 0 69 70" xmlns="http://www.w3.org/2000/svg"><title>tourist</title><g fill="none" fill-rule="evenodd"><path fill="#0074DE" d="M.09 6.753L11.383 2.25v9.004z"/><path d="M65.362 5.627l-5.646 2.251h-6.557a3.386 3.386 0 0 0-3.388 3.377v4.502c0 .413.086.803.223 1.17a6.771 6.771 0 0 0-3.61-3.035V12.38C46.384 5.554 40.812 0 33.964 0s-12.42 5.554-12.42 12.38v1.51c-2.665.94-4.517 3.486-4.517 6.368a6.65 6.65 0 0 0 1.94 4.708 6.602 6.602 0 0 0-.81 3.17 6.68 6.68 0 0 0 1.559 4.298l-1.709.775-.69-7.593a4.63 4.63 0 0 0-3.677-4.124V2.25h-2.258v19.334c-1.95.56-3.388 2.333-3.388 4.455v14.216c0 3.247 2.651 5.888 5.908 5.888.71 0 1.408-.126 2.075-.375l6.696-2.503v26.512h2.258V59.65h18.065v10.13h2.259V43.265l6.697 2.503a5.912 5.912 0 0 0 2.074.375c3.256 0 5.907-2.642 5.907-5.889V26.04c0-1.119-.41-2.16-1.129-3v-3.906h.911l5.647 2.25h3.604V5.628h-3.604zM52.03 11.255c0-.62.506-1.126 1.129-1.126h5.645v6.753H53.16a1.13 1.13 0 0 1-1.13-1.126v-4.501zm-1.13 9.003c0-.933-.21-1.82-.563-2.64.402.603.997 1.06 1.693 1.308v3.784a4.624 4.624 0 0 0-1.418 2.908l-.691 7.59-1.704-.771a6.683 6.683 0 0 0 .744-7.471 6.65 6.65 0 0 0 1.94-4.708zM21.733 31.313a4.442 4.442 0 0 1-.39-5.877l.685-.904-.911-.677c-1.162-.866-1.83-2.177-1.83-3.597a4.516 4.516 0 0 1 3.611-4.41l.905-.184V12.38c0-5.585 4.558-10.129 10.162-10.129 5.603 0 10.162 4.545 10.162 10.129v3.284l.904.183a4.516 4.516 0 0 1 3.612 4.411c0 1.42-.669 2.732-1.832 3.597l-.91.678.684.903c.608.8.929 1.735.929 2.7 0 1.199-.468 2.328-1.26 3.124l-.218.189-6.426-2.912V26.15c2.062-1.652 3.387-4.181 3.387-7.017V12.38h-2.258a3.386 3.386 0 0 1-3.387-3.376h-2.258a3.386 3.386 0 0 1-3.387 3.376H24.93v6.753c0 2.836 1.326 5.366 3.387 7.017v2.387L21.89 31.45l-.158-.137zm12.232-5.427c-3.736 0-6.775-3.029-6.775-6.753V14.63h4.517a5.648 5.648 0 0 0 4.516-2.254 5.648 5.648 0 0 0 4.517 2.254v4.502c0 3.724-3.039 6.753-6.775 6.753zm-3.388 1.588a8.997 8.997 0 0 0 6.775 0v2.913a3.386 3.386 0 0 1-3.387 3.377 3.386 3.386 0 0 1-3.388-3.377v-2.913zm-2.198 3.509c.304 2.82 2.677 5.031 5.586 5.031 2.909 0 5.282-2.211 5.586-5.031l1.091.494-6.27 13.541h-.814l-6.27-13.541 1.091-.494zm25.648 12.91c-.44 0-.87-.078-1.282-.232l-9.747-3.643v17.38H24.93v-17.38l-9.746 3.643a3.648 3.648 0 0 1-4.932-3.406V26.04c0-.854.452-1.602 1.129-2.028v1.875h2.258v-2.042a2.389 2.389 0 0 1 1.427 1.976l.98 10.75 9.184-4.161 6.881 14.86h3.703l6.882-14.86 9.184 4.16.887-9.73a3.373 3.373 0 0 0 2.649 1.297c.87 0 1.657-.338 2.258-.877v12.996a3.648 3.648 0 0 1-3.649 3.638zm2.52-19.133a1.128 1.128 0 0 1-2.258 0v-5.627h2.258v5.627zm10.162-5.627h-.912l-4.734-1.888v-7.48l4.734-1.887h.912v11.255z" fill="#333"/><path fill="#333" d="M32.835 65.276h2.258v4.502h-2.258z"/><path d="M38.48 55.147h-9.033a2.257 2.257 0 0 1-2.258-2.25v-5.628a2.257 2.257 0 0 1 2.258-2.25h9.033a2.257 2.257 0 0 1 2.258 2.25v5.628a2.256 2.256 0 0 1-2.258 2.25z" fill="#0074DE"/></g></svg>