<?xml version="1.0" encoding="UTF-8"?>
<svg width="15px" height="17px" viewBox="0 0 15 17" version="1.1" xmlns="http://www.w3.org/2000/svg" xmlns:xlink="http://www.w3.org/1999/xlink">
    <!-- Generator: Sketch 42 (36781) - http://www.bohemiancoding.com/sketch -->
    <title>route</title>
    <desc>Created with Sketch.</desc>
    <defs></defs>
    <g id="Page-1" stroke="none" stroke-width="1" fill="none" fill-rule="evenodd">
        <g id="10.Danh_Sach_Dich_Vu_Khac" transform="translate(-1043.000000, -337.000000)" fill="#005CB5">
            <g id="Sidebar_Tour-Du-Lich-Khac" transform="translate(1023.000000, 263.000000)">
                <g id="route" transform="translate(20.000000, 74.000000)">
                    <g id="Layer_1">
                        <g id="Group">
                            <path d="M10.3087815,4.85168863 C10.3087815,3.2701563 9.04878151,1.98351211 7.5,1.98351211 C5.95121849,1.98351211 4.69121849,3.2701563 4.69121849,4.85168863 C4.69121849,6.43322096 5.95121849,7.71986515 7.5,7.71986515 C9.04878151,7.71986515 10.3087815,6.43322096 10.3087815,4.85168863 L10.3087815,4.85168863 Z M5.32143908,4.85168863 C5.32143908,3.62502605 6.2987395,2.62709163 7.49996849,2.62709163 C8.70119748,2.62709163 9.6784979,3.62505823 9.6784979,4.85168863 C9.6784979,6.07831903 8.70119748,7.07628563 7.49996849,7.07628563 C6.29877101,7.07628563 5.32143908,6.07835121 5.32143908,4.85168863 L5.32143908,4.85168863 Z" id="Shape"></path>
                            <path d="M14.3631933,11.5265415 C13.9779202,11.0320472 13.4377626,10.6769844 12.8421744,10.5267729 C12.6732353,10.4841679 12.5024055,10.5894576 12.4606828,10.7620012 C12.4189601,10.9345127 12.5220693,11.1089549 12.6910399,11.1515599 C13.6622584,11.3965385 14.3405672,12.2795939 14.3405672,13.2989595 C14.3405672,14.5182853 13.3691282,15.5102666 12.1750525,15.5102666 L2.82494748,15.5102666 C1.63087185,15.5102666 0.659432773,14.5182853 0.659432773,13.2989595 C0.659432773,12.0796338 1.63087185,11.0876846 2.82494748,11.0876846 L5.59985294,11.0876846 C6.48255252,12.4383972 7.24061975,13.4515844 7.24978992,13.4638446 C7.30944328,13.5433589 7.40190126,13.589954 7.49996849,13.589954 C7.59803571,13.589954 7.69052521,13.5433267 7.75014706,13.4638446 C7.76130252,13.4489458 8.88053571,11.9530417 9.98435924,10.170069 C11.4884559,7.74042752 12.2511555,5.95108336 12.2511555,4.85168863 C12.251187,2.17645725 10.1198004,0 7.49996849,0 C4.88013655,0 2.74881303,2.17645725 2.74881303,4.85168863 C2.74881303,5.95108336 3.51148109,7.74042752 5.01560924,10.170069 C5.07267857,10.2622617 5.12977941,10.3536178 5.18678571,10.4441051 L2.82497899,10.4441051 C1.28338235,10.4441051 0.0292121849,11.7247962 0.0292121849,13.2989595 C0.0292121849,14.8731229 1.28338235,16.1538462 2.82494748,16.1538462 L12.175021,16.1538462 C13.7166176,16.1538462 14.9707878,14.8731551 14.9707878,13.2989595 C14.9707878,12.6589519 14.755021,12.0294667 14.3631933,11.5265415 L14.3631933,11.5265415 Z M3.37906513,4.85168863 C3.37906513,2.531327 5.22772059,0.643579528 7.49996849,0.643579528 C9.77221639,0.643579528 11.6209034,2.531327 11.6209034,4.85168863 C11.6209034,5.81306773 10.8716282,7.5318434 9.45403361,9.8222464 C8.67548319,11.0801548 7.88902311,12.1933865 7.49993697,12.7310971 C7.11138655,12.1941587 6.3265021,11.0832439 5.54826681,9.82617223 C4.12912815,7.53380631 3.37906513,5.81367913 3.37906513,4.85168863 L3.37906513,4.85168863 Z" id="Shape"></path>
                            <path d="M10.7820378,10.4441051 C10.6080252,10.4441051 10.4669118,10.5881704 10.4669118,10.7658949 C10.4669118,10.9436194 10.6080252,11.0876846 10.7820378,11.0876846 L11.4690126,11.0876846 C11.6430252,11.0876846 11.7841387,10.9436194 11.7841387,10.7658949 C11.7841387,10.5881704 11.6430252,10.4441051 11.4690126,10.4441051 L10.7820378,10.4441051 L10.7820378,10.4441051 Z" id="Shape"></path>
                        </g>
                    </g>
                </g>
            </g>
        </g>
    </g>
</svg>