<?xml version="1.0" encoding="UTF-8"?>
<svg width="40px" height="28px" viewBox="0 0 40 28" version="1.1" xmlns="http://www.w3.org/2000/svg" xmlns:xlink="http://www.w3.org/1999/xlink">
    <!-- Generator: Sketch 42 (36781) - http://www.bohemiancoding.com/sketch -->
    <title>quotes copy</title>
    <desc>Created with Sketch.</desc>
    <defs></defs>
    <g id="Page-1" stroke="none" stroke-width="1" fill="none" fill-rule="evenodd">
        <g id="09.Gioi_Thieu" transform="translate(-535.000000, -2071.000000)" fill-rule="nonzero" fill="#0056A5">
            <g id="Khach-Hang-Noi-Ve" transform="translate(0.000000, 1889.000000)">
                <g id="quotes-copy" transform="translate(535.000000, 182.000000)">
                    <g id="Capa_1">
                        <path d="M8.77192982,10.1529745 C13.5950097,10.1529745 17.5048733,14.1304816 17.5048733,19.0368272 C17.5048733,23.9431728 13.5950097,27.9206799 8.77192982,27.9206799 C3.9488499,27.9206799 0.0389863548,23.9431728 0.0389863548,19.0368272 L0,17.7677054 C0,7.95485552 7.8197271,0 17.4658869,0 L17.4658869,5.07648725 C14.1335673,5.07648725 11.0006238,6.3966119 8.6442885,8.79366572 C8.19072125,9.25515014 7.77676413,9.74614164 7.40335283,10.261881 C7.84927875,10.1904929 8.3062768,10.1529745 8.77192982,10.1529745 Z M31.2280702,10.1529745 C36.0510721,10.1529745 39.9610136,14.1304816 39.9610136,19.0368272 C39.9610136,23.9431728 36.0510721,27.9206799 31.2280702,27.9206799 C26.4050682,27.9206799 22.4951267,23.9431728 22.4951267,19.0368272 L22.4561404,17.7677054 C22.4561404,7.95485552 30.2757895,0 39.9220273,0 L39.9220273,5.07648725 C36.5897856,5.07648725 33.4566862,6.3966119 31.1004288,8.79366572 C30.6467836,9.25515014 30.2328265,9.74614164 29.8594152,10.261881 C30.3053411,10.1904929 30.7623392,10.1529745 31.2280702,10.1529745 Z" id="Shape"></path>
                    </g>
                </g>
            </g>
        </g>
    </g>
</svg>