<?xml version="1.0" encoding="UTF-8"?>
<svg width="70px" height="70px" viewBox="0 0 70 70" version="1.1" xmlns="http://www.w3.org/2000/svg" xmlns:xlink="http://www.w3.org/1999/xlink">
    <!-- Generator: Sketch 42 (36781) - http://www.bohemiancoding.com/sketch -->
    <title>hot-air-balloon</title>
    <desc>Created with Sketch.</desc>
    <defs></defs>
    <g id="Page-1" stroke="none" stroke-width="1" fill="none" fill-rule="evenodd">
        <g id="09.Gioi_Thieu" transform="translate(-1123.000000, -1726.000000)">
            <g id="Noi-Dung-2" transform="translate(1.000000, 1686.000000)">
                <g id="Group-4" transform="translate(169.000000, 40.000000)">
                    <g id="hot-air-balloon" transform="translate(953.000000, 0.000000)">
                        <g id="Layer_1">
                            <g id="Group">
                                <path d="M57.3862838,19.3401014 L57.3683108,19.0731081 L55.1205068,19.2161824 L55.1396622,19.4966554 C55.1588176,19.7861149 55.1801014,20.0755743 55.1801014,20.3716554 C55.1801014,24.4122635 53.8051689,28.3873649 51.3085811,31.5643243 L47.2083784,36.7838176 C44.5935473,40.1126014 43.0575676,44.2083108 42.8243919,48.4234459 L40.5406419,48.4234459 L40.5406419,42.7927027 C40.5406419,40.3727365 41.7490878,38.3964189 43.2793919,35.892973 C45.5709459,32.1463176 48.4234459,27.4809122 48.4234459,19.1440541 L46.1711486,19.1440541 C46.1711486,26.8478378 43.6137838,31.0291554 41.3581757,34.7183446 C39.7105743,37.4119257 38.2883446,39.7387162 38.2883446,42.7927027 L38.2883446,48.4234459 L31.5316892,48.4234459 L31.5316892,42.7927027 C31.5316892,39.7387162 30.1094595,37.4121622 28.4618581,34.7171622 C26.2060135,31.0293919 23.6486486,26.8468919 23.6486486,19.1440541 C23.6486486,7.66310811 32.8602703,3.18902027 34.904223,2.33766892 C36.4380743,2.99652027 42.3377027,5.88945946 44.9165878,12.3533446 L47.0078378,11.5199662 C45.2578378,7.13361486 42.2353041,4.24753378 39.6935473,2.46371622 C43.3049324,2.99628378 46.6866892,4.59658784 49.4086486,7.13716216 L50.9458108,5.49192568 C47.1520946,1.95054054 42.2218243,0 37.0619257,0 L32.7590541,0 C21.5259459,0 12.3873986,9.1385473 12.3873986,20.3716554 C12.3873986,24.9145608 13.9335473,29.3841554 16.7411149,32.9572297 L20.8413176,38.176723 C23.3773986,41.4052365 24.7747973,45.4437162 24.7747973,49.5493581 L24.7747973,50.6755068 L24.7747973,55.1801014 L22.5225,55.1801014 L22.5225,57.4323986 L24.5472973,57.4323986 L23.1475338,59.5326351 C22.7386486,60.1451351 22.5225,60.8593243 22.5225,61.5957432 C22.5225,63.1577365 23.493277,64.4931757 24.8613514,65.0427703 C25.2756757,67.7410811 27.5932432,69.8197973 30.4053041,69.8197973 L39.4142568,69.8197973 C42.2260811,69.8197973 44.5436486,67.7410811 44.9582095,65.0427703 C46.3265203,64.4931757 47.2970608,63.1586824 47.2970608,61.5957432 C47.2970608,60.8593243 47.0809122,60.1453716 46.672027,59.5326351 L45.2722635,57.4323986 L47.2972973,57.4323986 L47.2972973,55.1801014 L45.045,55.1801014 L45.045,50.6755068 L45.045,49.5493581 C45.045,45.4434797 46.4426351,41.4052365 48.9784797,38.1755405 L53.0786824,32.9560473 C55.8860135,29.3839189 57.4323986,24.9143243 57.4323986,20.3716554 C57.4323986,20.0235473 57.4099324,19.6825338 57.3862838,19.3401014 L57.3862838,19.3401014 Z M22.6114189,36.7838176 L18.5112162,31.5643243 C16.0146284,28.3876014 14.6396959,24.4122635 14.6396959,20.3716554 C14.6396959,11.2546284 21.4145608,3.71070946 30.1891554,2.45614865 C26.36375,5.14641892 21.3963514,10.3335135 21.3963514,19.1442905 C21.3963514,27.4809122 24.2488514,32.1453716 26.5404054,35.8932095 C28.0707095,38.3966554 29.2791554,40.372973 29.2791554,42.7929392 L29.2791554,48.4236824 L26.9954054,48.4236824 C26.7624662,44.2083108 25.22625,40.1126014 22.6114189,36.7838176 L22.6114189,36.7838176 Z M26.6858446,63.0631419 L26.2410135,63.0631419 C25.4324662,63.0631419 24.7747973,62.405473 24.7747973,61.5957432 C24.7747973,61.3051014 24.8604054,61.0236824 25.0214527,60.7815203 L26.4640203,58.6171959 L27.9065878,60.7815203 C28.0676351,61.0236824 28.1532432,61.3051014 28.1532432,61.5957432 C28.1532432,62.405473 27.4955743,63.0631419 26.6858446,63.0631419 L26.6858446,63.0631419 Z M43.5776014,63.0631419 L43.1327703,63.0631419 C42.324223,63.0631419 41.6665541,62.405473 41.6665541,61.5957432 C41.6665541,61.3051014 41.7521622,61.0236824 41.9132095,60.7815203 L43.355777,58.6171959 L44.7983446,60.7815203 C44.9593919,61.0236824 45.045,61.3051014 45.045,61.5957432 C45.045,62.405473 44.3873311,63.0631419 43.5776014,63.0631419 L43.5776014,63.0631419 Z M42.6025676,65.2612838 C42.1508784,66.5969595 40.9010473,67.5675 39.4144932,67.5675 L30.4055405,67.5675 C28.9189865,67.5675 27.6691554,66.596723 27.2174662,65.2612838 C29.0159459,65.0011486 30.4055405,63.4651689 30.4055405,61.5957432 C30.4055405,60.8593243 30.1893919,60.1453716 29.7805068,59.5326351 L28.3807432,57.4323986 L41.4392905,57.4323986 L40.039527,59.5326351 C39.6306419,60.1451351 39.4144932,60.8593243 39.4144932,61.5957432 C39.4144932,63.4651689 40.8040878,65.0011486 42.6025676,65.2612838 L42.6025676,65.2612838 Z M42.7927027,55.1801014 L27.0268581,55.1801014 L27.0268581,50.6755068 L42.7927027,50.6755068 L42.7927027,55.1801014 L42.7927027,55.1801014 Z" id="Shape" fill="#333333"></path>
                                <path d="M63.0631419,20.2702027 L49.5495946,20.2702027 C46.4447635,20.2702027 43.9188514,17.7442905 43.9188514,14.6394595 C43.9188514,12.2958784 45.3557432,10.2419932 47.495473,9.40743243 C48.3581757,5.28027027 52.0246622,2.25206081 56.30625,2.25206081 C59.5640878,2.25206081 62.5821284,4.0460473 64.1654054,6.87253378 C67.3849324,7.40297297 69.8197973,10.2046284 69.8197973,13.5133108 C69.8197973,17.2398649 66.7894595,20.2702027 63.0631419,20.2702027 L63.0631419,20.2702027 Z" id="Shape" fill="#0074DE"></path>
                                <path d="M19.1440541,54.0539527 L5.63074324,54.0539527 C2.52591216,54.0539527 0,51.5280405 0,48.4234459 C0,46.0798649 1.43689189,44.0259797 3.57662162,43.1914189 C4.43932432,39.0642568 8.10581081,36.0360473 12.3873986,36.0360473 C15.6452365,36.0360473 18.663277,37.8300338 20.2465541,40.6565203 C23.4660811,41.1869595 25.9009459,43.9886149 25.9009459,47.2972973 C25.9009459,51.0236149 22.8706081,54.0539527 19.1440541,54.0539527 L19.1440541,54.0539527 Z" id="Shape" fill="#0074DE"></path>
                            </g>
                        </g>
                    </g>
                </g>
            </g>
        </g>
    </g>
</svg>