<?xml version="1.0" encoding="UTF-8"?>
<svg width="59px" height="59px" viewBox="0 0 59 59" version="1.1" xmlns="http://www.w3.org/2000/svg" xmlns:xlink="http://www.w3.org/1999/xlink">
    <!-- Generator: Sketch 42 (36781) - http://www.bohemiancoding.com/sketch -->
    <title>pictures</title>
    <desc>Created with Sketch.</desc>
    <defs></defs>
    <g id="Page-1" stroke="none" stroke-width="1" fill="none" fill-rule="evenodd">
        <g id="09.Gioi_Thieu" transform="translate(-541.000000, -1735.000000)">
            <g id="Noi-Dung-2" transform="translate(1.000000, 1686.000000)">
                <g id="Group-4" transform="translate(169.000000, 40.000000)">
                    <g id="pictures" transform="translate(371.000000, 9.000000)">
                        <g id="Layer_1">
                            <g id="Group">
                                <path d="M11.3522357,24.5952525 L9.46026263,24.5952525 L9.46026263,22.7032795 C9.46026263,21.1386869 10.7336296,19.8653199 12.2982222,19.8653199 C13.8628148,19.8653199 15.1361818,21.1386869 15.1361818,22.7032795 L15.1361818,24.5952525 L13.2442088,24.5952525 L11.3522357,24.5952525 L11.3522357,24.5952525 Z" id="Shape" fill="#0074DE"></path>
                                <path d="M18.9201279,24.5952525 L17.0281549,24.5952525 L17.0281549,22.7032795 C17.0281549,21.1386869 18.3015219,19.8653199 19.8661145,19.8653199 C21.4307071,19.8653199 22.7040741,21.1386869 22.7040741,22.7032795 L22.7040741,24.5952525 L20.812101,24.5952525 L18.9201279,24.5952525 L18.9201279,24.5952525 Z" id="Shape" fill="#0074DE"></path>
                                <path d="M11.3522357,31.2169596 L9.46026263,31.2169596 L9.46026263,29.3249865 C9.46026263,27.7603939 10.7336296,26.4870269 12.2982222,26.4870269 C13.8628148,26.4870269 15.1361818,27.7603939 15.1361818,29.3249865 L15.1361818,31.2169596 L13.2442088,31.2169596 L11.3522357,31.2169596 L11.3522357,31.2169596 Z" id="Shape" fill="#0074DE"></path>
                                <path d="M18.9201279,31.2169596 L17.0281549,31.2169596 L17.0281549,29.3249865 C17.0281549,27.7603939 18.3015219,26.4870269 19.8661145,26.4870269 C21.4307071,26.4870269 22.7040741,27.7603939 22.7040741,29.3249865 L22.7040741,31.2169596 L20.812101,31.2169596 L18.9201279,31.2169596 L18.9201279,31.2169596 Z" id="Shape" fill="#0074DE"></path>
                                <path d="M26.4878215,31.2169596 L24.5958485,31.2169596 L24.5958485,29.3249865 C24.5958485,27.7603939 25.8692155,26.4870269 27.4338081,26.4870269 C28.9984007,26.4870269 30.2717677,27.7603939 30.2717677,29.3249865 L30.2717677,31.2169596 L28.3797946,31.2169596 L26.4878215,31.2169596 L26.4878215,31.2169596 Z" id="Shape" fill="#0074DE"></path>
                                <path d="M11.3522357,37.8386667 L9.46026263,37.8386667 L9.46026263,35.9466936 C9.46026263,34.382101 10.7336296,33.108734 12.2982222,33.108734 C13.8628148,33.108734 15.1361818,34.382101 15.1361818,35.9466936 L15.1361818,37.8386667 L13.2442088,37.8386667 L11.3522357,37.8386667 L11.3522357,37.8386667 Z" id="Shape" fill="#0074DE"></path>
                                <path d="M18.9201279,37.8386667 L17.0281549,37.8386667 L17.0281549,35.9466936 C17.0281549,34.382101 18.3015219,33.108734 19.8661145,33.108734 C21.4307071,33.108734 22.7040741,34.382101 22.7040741,35.9466936 L22.7040741,37.8386667 L20.812101,37.8386667 L18.9201279,37.8386667 L18.9201279,37.8386667 Z" id="Shape" fill="#0074DE"></path>
                                <path d="M26.4878215,37.8386667 L24.5958485,37.8386667 L24.5958485,35.9466936 C24.5958485,34.382101 25.8692155,33.108734 27.4338081,33.108734 C28.9984007,33.108734 30.2717677,34.382101 30.2717677,35.9466936 L30.2717677,37.8386667 L28.3797946,37.8386667 L26.4878215,37.8386667 L26.4878215,37.8386667 Z" id="Shape" fill="#0074DE"></path>
                                <path d="M43.5151818,3.52192256 L43.5151818,0 L0.000595959595,0 L0.000595959595,52.9742525 L24.4548047,52.9742525 L41.3705219,58.9102088 L43.4535993,52.9742525 L43.5151818,52.9742525 L43.5151818,52.7974512 L58.9098114,8.92449495 L43.5151818,3.52192256 L43.5151818,3.52192256 Z M56.4995522,10.0820471 L55.8733973,11.8679394 L43.5151818,7.53173737 L43.5151818,5.52633333 L56.4995522,10.0820471 L56.4995522,10.0820471 Z M41.6232088,40.6766263 L1.89256902,40.6766263 L1.89256902,5.67572054 L30.3198418,5.67572054 C30.7815118,11.701468 35.5974613,16.5174175 41.6232088,16.9790875 L41.6232088,40.6766263 L41.6232088,40.6766263 Z M32.2116162,5.67572054 L41.6230101,5.67572054 L41.6230101,15.0871145 C36.6397946,14.6359731 32.6629562,10.6591347 32.2116162,5.67572054 L32.2116162,5.67572054 Z M41.6232088,1.89197306 L41.6232088,2.85782492 L41.6232088,3.78394613 L1.89256902,3.78394613 L1.89256902,1.89197306 L41.6232088,1.89197306 L41.6232088,1.89197306 Z M1.89256902,51.0822795 L1.89256902,42.5685993 L41.6232088,42.5685993 L41.6232088,51.0822795 L19.0629596,51.0822795 L1.89256902,51.0822795 L1.89256902,51.0822795 Z M40.2117778,56.497963 L30.1694613,52.9742525 L41.4481953,52.9742525 L40.2117778,56.497963 L40.2117778,56.497963 Z M43.5151818,9.5363468 L55.2460505,13.6522424 L43.5151818,47.0835892 L43.5151818,9.5363468 L43.5151818,9.5363468 L43.5151818,9.5363468 Z" id="Shape" fill="#333333"></path>
                                <path d="M24.9041582,18.9193333 L26.4876229,18.9193333 L26.4876229,17.0273603 L18.6882997,17.0273603 L17.3364646,12.2974276 L18.9199293,12.2974276 L18.9199293,10.4054545 L3.78454209,10.4054545 L3.78454209,12.2974276 L5.67651515,12.2974276 L5.67651515,17.0273603 L3.78454209,17.0273603 L3.78454209,18.9193333 L5.67651515,18.9193333 L5.67651515,23.649266 L3.78454209,23.649266 L3.78454209,25.5412391 L5.67651515,25.5412391 L5.67651515,30.2711717 L3.78454209,30.2711717 L3.78454209,32.1631448 L5.67651515,32.1631448 L5.67651515,36.8930774 L3.78454209,36.8930774 L3.78454209,38.7850505 L39.7312357,38.7850505 L39.7312357,36.8930774 L37.8392626,36.8930774 L37.8392626,32.1631448 L39.7312357,32.1631448 L39.7312357,30.2711717 L37.8392626,30.2711717 L37.8392626,25.5412391 L39.7312357,25.5412391 L39.7312357,23.649266 L26.2559933,23.649266 L24.9041582,18.9193333 L24.9041582,18.9193333 Z M7.56848822,12.2976263 L15.3680101,12.2976263 L16.7198451,17.0275589 L7.56848822,17.0275589 L7.56848822,12.2976263 L7.56848822,12.2976263 Z M7.56848822,18.9193333 L22.9357037,18.9193333 L24.2875387,23.649266 L7.56848822,23.649266 L7.56848822,18.9193333 L7.56848822,18.9193333 Z M7.56848822,25.5410404 L30.5033973,25.5410404 L31.8552323,30.2709731 L7.56848822,30.2709731 L7.56848822,25.5410404 L7.56848822,25.5410404 Z M7.56848822,32.1629461 L30.5033973,32.1629461 L31.8552323,36.8928788 L7.56848822,36.8928788 L7.56848822,32.1629461 L7.56848822,32.1629461 Z M35.9474882,36.8926801 L33.8238855,36.8926801 L32.4720505,32.1627475 L35.9474882,32.1627475 L35.9474882,36.8926801 L35.9474882,36.8926801 Z M35.9474882,30.2709731 L33.8238855,30.2709731 L32.4720505,25.5410404 L35.9474882,25.5410404 L35.9474882,30.2709731 L35.9474882,30.2709731 Z" id="Shape" fill="#333333"></path>
                                <circle id="Oval" fill="#333333" cx="10.4062492" cy="15.1353872" r="0.945986532"></circle>
                                <circle id="Oval" fill="#333333" cx="14.1901953" cy="15.1353872" r="0.945986532"></circle>
                                <rect id="Rectangle-path" fill="#333333" transform="translate(28.147988, 10.702632) rotate(-22.507915) translate(-28.147988, -10.702632) " x="26.7291481" y="9.75667315" width="2.83767904" height="1.89191846"></rect>
                                <rect id="Rectangle-path" fill="#333333" transform="translate(31.531922, 15.766612) rotate(-45.000000) translate(-31.531922, -15.766612) " x="30.1129558" y="14.8206348" width="2.83793238" height="1.89195492"></rect>
                                <rect id="Rectangle-path" fill="#333333" transform="translate(36.594879, 19.150482) rotate(-67.492085) translate(-36.594879, -19.150482) " x="35.176039" y="18.2045231" width="2.83767904" height="1.89191846"></rect>
                            </g>
                        </g>
                    </g>
                </g>
            </g>
        </g>
    </g>
</svg>