<?xml version="1.0" encoding="UTF-8"?>
<svg width="68px" height="68px" viewBox="0 0 68 68" version="1.1" xmlns="http://www.w3.org/2000/svg" xmlns:xlink="http://www.w3.org/1999/xlink">
    <!-- Generator: Sketch 42 (36781) - http://www.bohemiancoding.com/sketch -->
    <title>planet-earth</title>
    <desc>Created with Sketch.</desc>
    <defs></defs>
    <g id="Page-1" stroke="none" stroke-width="1" fill="none" fill-rule="evenodd">
        <g id="09.Gioi_Thieu" transform="translate(-247.000000, -1728.000000)">
            <g id="Noi-Dung-2" transform="translate(1.000000, 1686.000000)">
                <g id="Group-4" transform="translate(169.000000, 40.000000)">
                    <g id="planet-earth" transform="translate(77.000000, 2.000000)">
                        <g id="Layer_1">
                            <g id="Group">
                                <path d="M13.7509324,42.0382432 C14.7847162,42.4517568 15.8874189,42.664027 17.0011486,42.664027 L19.6912838,42.664027 C20.9001216,42.664027 21.8792297,43.6431351 21.8792297,44.851973 C21.8792297,47.2685 23.8385946,49.2278649 26.2551216,49.2278649 C28.6716486,49.2278649 30.6310135,47.2685 30.6310135,44.851973 L30.6310135,41.7910541 C30.6310135,39.5769189 29.6245676,37.4840811 27.8960811,36.1004189 C26.1675946,34.7176757 25.1611486,32.6239189 25.1611486,30.4097838 L25.1611486,21.8964595 C25.1611486,20.4578919 24.7356892,19.051027 23.9369189,17.8543649 L20.785027,13.1274459 L20.5564459,12.5924054 C13.4676757,17.0425 8.75155405,24.924527 8.75155405,33.912473 C8.75155405,36.1539459 9.04905405,38.3255811 9.59833784,40.3940676 L9.84552703,40.4760811 L13.7509324,42.0382432 L13.7509324,42.0382432 Z" id="Shape" fill="#0074DE"></path>
                                <path d="M59.0733919,33.912473 C59.0733919,22.6655946 51.6935541,13.1449054 41.5121622,9.92202703 L35.8814865,17.4298243 C35.3138243,18.1867838 35.0062162,19.1091486 35.0062162,20.0554054 L35.0062162,29.5365811 C35.0062162,31.9531081 36.9655811,33.912473 39.3821081,33.912473 L48.1336622,33.912473 C49.3425,33.912473 50.3216081,32.9333649 50.3216081,31.724527 C50.3216081,30.5156892 51.3007162,29.5365811 52.5095541,29.5365811 C53.7183919,29.5365811 54.6975,30.5156892 54.6975,31.724527 L54.6975,37.2816892 C54.6975,37.9205676 54.4186081,38.5277432 53.9338784,38.9424054 L47.8044595,44.1965541 C47.3188108,44.6121351 47.0396892,45.2193108 47.0396892,45.8581892 L47.0396892,55.3788784 C54.2566486,50.9563514 59.0733919,42.9978243 59.0733919,33.912473 L59.0733919,33.912473 Z" id="Shape" fill="#0074DE"></path>
                                <path d="M33.912473,7.65758108 C19.4362838,7.65758108 7.65758108,19.4360541 7.65758108,33.912473 C7.65758108,48.3888919 19.4360541,60.1673649 33.912473,60.1673649 C48.3888919,60.1673649 60.1673649,48.3888919 60.1673649,33.912473 C60.1673649,19.4360541 48.3886622,7.65758108 33.912473,7.65758108 L33.912473,7.65758108 Z M33.912473,57.9794189 C20.6416757,57.9794189 9.84552703,47.1832703 9.84552703,33.912473 C9.84552703,20.6416757 20.6416757,9.84552703 33.912473,9.84552703 C47.1832703,9.84552703 57.9794189,20.6416757 57.9794189,33.912473 C57.9794189,47.1832703 47.1832703,57.9794189 33.912473,57.9794189 L33.912473,57.9794189 Z" id="Shape" fill="#333333"></path>
                                <path d="M63.2696351,16.9552027 L61.3771216,18.0512432 C64.1635135,22.862473 65.637,28.3475 65.637,33.912473 C65.637,51.4047838 51.4047838,65.637 33.912473,65.637 C16.4201622,65.637 2.18794595,51.4047838 2.18794595,33.912473 C2.18794595,16.4201622 16.4201622,2.18794595 33.912473,2.18794595 C38.8964595,2.18794595 43.8257703,3.38139189 48.2420946,5.61964865 C48.175473,5.92381081 48.1338919,6.23877027 48.1338919,6.56383784 C48.1338919,8.97714865 50.096473,10.9397297 52.5097838,10.9397297 C54.9230946,10.9397297 56.8856757,8.97714865 56.8856757,6.56383784 C56.8856757,4.15052703 54.9230946,2.18794595 52.5097838,2.18794595 C51.2069865,2.18794595 50.0493784,2.771 49.246473,3.67682432 C44.520473,1.27890541 39.2445,0 33.912473,0 C15.212473,0 0,15.212473 0,33.912473 C0,52.612473 15.212473,67.8249459 33.912473,67.8249459 C52.612473,67.8249459 67.8249459,52.612473 67.8249459,33.912473 C67.8249459,27.9636216 66.2508378,22.0988514 63.2696351,16.9552027 L63.2696351,16.9552027 Z M52.5095541,4.37589189 C53.7160946,4.37589189 54.6975,5.35706757 54.6975,6.56383784 C54.6975,7.77060811 53.7163243,8.75178378 52.5095541,8.75178378 C51.3027838,8.75178378 50.3216081,7.77060811 50.3216081,6.56383784 C50.3216081,5.35706757 51.3030135,4.37589189 52.5095541,4.37589189 L52.5095541,4.37589189 Z" id="Shape" fill="#333333"></path>
                            </g>
                        </g>
                    </g>
                </g>
            </g>
        </g>
    </g>
</svg>