<?xml version="1.0" encoding="UTF-8"?>
<svg width="69px" height="70px" viewBox="0 0 69 70" version="1.1" xmlns="http://www.w3.org/2000/svg" xmlns:xlink="http://www.w3.org/1999/xlink">
    <!-- Generator: Sketch 42 (36781) - http://www.bohemiancoding.com/sketch -->
    <title>tourist</title>
    <desc>Created with Sketch.</desc>
    <defs></defs>
    <g id="Page-1" stroke="none" stroke-width="1" fill="none" fill-rule="evenodd">
        <g id="09.Gioi_Thieu" transform="translate(-832.000000, -1726.000000)">
            <g id="Noi-Dung-2" transform="translate(1.000000, 1686.000000)">
                <g id="Group-4" transform="translate(169.000000, 40.000000)">
                    <g id="tourist" transform="translate(662.000000, 0.000000)">
                        <g id="Layer_1">
                            <g id="Group">
                                <polygon id="Shape" fill="#0074DE" points="0.0905773196 6.75263359 11.3816804 2.25095664 11.3816804 11.2545469"></polygon>
                                <path d="M65.3622062,5.62739161 L59.7155876,7.87834825 L53.1586907,7.87834825 C51.2911856,7.87834825 49.7712887,9.39332432 49.7712887,11.2547832 L49.7712887,15.7566965 C49.7712887,16.1698288 49.8571237,16.560272 49.993701,16.9270805 C49.1988969,15.5404402 47.9365052,14.4385964 46.3838866,13.8916924 L46.3838866,12.3802615 C46.3841237,5.55412444 40.8119588,0 33.9638866,0 C27.1158144,0 21.5436495,5.55412444 21.5436495,12.3800252 L21.5436495,13.8902744 C18.8789691,14.8302213 17.0273505,17.375901 17.0273505,20.2581371 C17.0273505,22.04302 17.7239897,23.7099664 18.9671753,24.9659075 C18.4341443,25.9450878 18.1564845,27.0244787 18.1564845,28.136249 C18.1564845,29.7074754 18.6928351,31.1973988 19.7157423,32.4344323 L18.0073402,33.2087009 L17.3163918,25.6163309 C17.1255155,23.5364886 15.6115464,21.9045214 13.6399485,21.4916254 L13.6399485,2.25095664 L11.3816804,2.25095664 L11.3816804,21.5852183 C9.43284536,22.1446486 7.99427835,23.9181869 7.99427835,26.0398625 L7.99427835,40.2555849 C7.99427835,43.5025024 10.6454433,46.1439022 13.9017216,46.1439022 C14.6118763,46.1439022 15.309701,46.0179299 15.9769381,45.7690579 L22.6725464,43.2661567 L22.6725464,69.7784742 L24.9308144,69.7784742 L24.9308144,59.6494057 L42.9964845,59.6494057 L42.9964845,69.7784742 L45.2547526,69.7784742 L45.2547526,43.2659203 L51.9515464,45.7688215 C52.6178351,46.0174572 53.3154227,46.1436658 54.0258144,46.1436658 C57.2820928,46.1436658 59.9332577,43.502266 59.9332577,40.2553485 L59.9332577,26.0386807 C59.9332577,24.9200564 59.5232887,23.8789535 58.8041237,23.0382718 L58.8041237,19.1326588 L59.7153505,19.1326588 L65.3619691,21.3836154 L68.9660928,21.3836154 L68.9660928,5.62739161 L65.3622062,5.62739161 L65.3622062,5.62739161 Z M52.0297938,11.2545469 C52.0297938,10.6343757 52.5355567,10.1290686 53.1589278,10.1290686 L58.8043608,10.1290686 L58.8043608,16.8817021 L53.1586907,16.8817021 C52.5353196,16.8817021 52.0295567,16.376395 52.0295567,15.7562238 L52.0297938,11.2545469 L52.0297938,11.2545469 L52.0297938,11.2545469 Z M50.9006598,20.2581371 C50.9006598,19.3250442 50.6896289,18.4370933 50.3372784,17.6179191 C50.7391856,18.2210733 51.3343402,18.678166 52.0297938,18.9256199 L52.0297938,22.7104603 C51.231433,23.4802383 50.7142887,24.4977066 50.6116186,25.6175127 L49.9206701,33.2087009 L48.2167732,32.4365594 C49.2228454,31.2288328 49.7715258,29.7242559 49.7715258,28.136249 C49.7715258,27.0242424 49.493866,25.9450878 48.9608351,24.9659075 C50.2040206,23.7099664 50.9006598,22.0432563 50.9006598,20.2581371 L50.9006598,20.2581371 Z M21.7321546,31.3134445 C20.881866,30.4637817 20.4145155,29.3349945 20.4145155,28.136249 C20.4145155,27.1705404 20.7350928,26.2365021 21.3425773,25.4362355 L22.0268866,24.5324495 L21.1156598,23.8548463 C19.9538041,22.9893483 19.2853814,21.6781022 19.2853814,20.2579008 C19.2853814,18.125117 20.8052784,16.2705121 22.8973299,15.8472169 L23.8016804,15.6638126 L23.8016804,12.3800252 C23.8016804,6.79541216 28.3599485,2.25095664 33.9636495,2.25095664 C39.5673505,2.25095664 44.1256186,6.79564851 44.1256186,12.3800252 L44.1256186,15.664049 L45.0299691,15.8474533 C47.1222577,16.2705121 48.6419175,18.1253533 48.6419175,20.2581371 C48.6419175,21.6785749 47.9734948,22.9895846 46.8104536,23.8550826 L45.8992268,24.5326858 L46.5835361,25.4364718 C47.1922062,26.2367385 47.5127835,27.1707767 47.5127835,28.1364854 C47.5127835,29.3349945 47.045433,30.464018 46.2527629,31.2595577 L46.0348557,31.4486343 L39.6090825,28.5370914 L39.6090825,26.1499996 C41.6707835,24.497943 42.9964845,21.9690438 42.9964845,19.1328951 L42.9964845,12.3800252 L40.7382165,12.3800252 C38.8707113,12.3800252 37.3508144,10.8650491 37.3508144,9.00359023 L35.0930206,9.00359023 C35.0930206,10.8650491 33.5731237,12.3800252 31.7056186,12.3800252 L24.9310515,12.3800252 L24.9310515,19.1326588 C24.9310515,21.9688074 26.2565155,24.4988884 28.3184536,26.1497632 L28.3184536,28.536855 L21.8903093,31.4495797 L21.7321546,31.3134445 L21.7321546,31.3134445 Z M33.9638866,25.8855287 C30.2276907,25.8855287 27.1893196,22.8569947 27.1893196,19.1328951 L27.1893196,14.6309818 L31.7058557,14.6309818 C33.5508351,14.6309818 35.1914227,13.7442127 36.2223918,12.3767164 C37.2533608,13.7442127 38.8939485,14.6309818 40.7389278,14.6309818 L40.7389278,19.1328951 C40.7386907,22.8569947 37.7000825,25.8855287 33.9638866,25.8855287 L33.9638866,25.8855287 Z M30.5764845,27.4735356 C31.6231031,27.8977762 32.7657526,28.1364854 33.9638866,28.1364854 C35.1620206,28.1364854 36.304433,27.8977762 37.3512887,27.4735356 L37.3512887,29.2619637 L37.3512887,29.986836 L37.3512887,30.387442 C37.3512887,32.2489009 35.8313918,33.763877 33.9638866,33.763877 C32.0963814,33.763877 30.5764845,32.2489009 30.5764845,30.387442 L30.5764845,29.986836 L30.5764845,29.2619637 L30.5764845,27.4735356 L30.5764845,27.4735356 Z M28.3782062,30.9825605 C28.6819485,33.802874 31.0552165,36.0143609 33.9638866,36.0143609 C36.8725567,36.0143609 39.2458247,33.802874 39.549567,30.9825605 L40.6414742,31.4765231 L34.370299,45.0179512 L33.5572371,45.0179512 L27.2872474,31.4765231 L28.3782062,30.9825605 L28.3782062,30.9825605 Z M54.0260515,43.8927092 C53.5869175,43.8927092 53.1556082,43.8149514 52.7444536,43.660854 L42.9967216,40.0178211 L42.9967216,57.3982127 L24.9310515,57.3982127 L24.9310515,40.0178211 L15.1845052,43.660854 C14.7724021,43.8149514 14.3410928,43.8927092 13.9017216,43.8927092 C11.8895773,43.8927092 10.2525464,42.260742 10.2525464,40.2553485 L10.2525464,26.0386807 C10.2525464,25.1845273 10.705433,24.4372021 11.3816804,24.0105981 L11.3816804,25.8855287 L13.6399485,25.8855287 L13.6399485,23.8439744 C14.4191031,24.186203 14.9846186,24.9198201 15.067134,25.8202973 L16.0471237,36.569537 L25.2312371,32.4086706 L32.112268,47.2691441 L35.8145567,47.2691441 L42.6965361,32.4086706 L51.8806495,36.569537 L52.7681649,26.8389474 C53.3891649,27.6233788 54.3399897,28.1364854 55.4169588,28.1364854 C56.2874021,28.1364854 57.0743814,27.7978019 57.6752268,27.2586974 L57.6752268,40.2553485 C57.6752268,42.2609783 56.0379588,43.8927092 54.0260515,43.8927092 L54.0260515,43.8927092 Z M56.5460928,24.7600504 C56.5460928,25.3802216 56.0403299,25.8855287 55.4169588,25.8855287 C54.7935876,25.8855287 54.2878247,25.3802216 54.2878247,24.7600504 L54.2878247,19.1326588 L56.5460928,19.1326588 L56.5460928,24.7600504 L56.5460928,24.7600504 L56.5460928,24.7600504 Z M66.7080619,19.1326588 L65.7956495,19.1326588 L61.0623918,17.2452019 L61.0623918,9.76556883 L65.7956495,7.87811191 L66.7080619,7.87811191 L66.7080619,19.1326588 L66.7080619,19.1326588 Z" id="Shape" fill="#333333"></path>
                                <rect id="Rectangle-path" fill="#333333" x="32.8347526" y="65.2763246" width="2.25826804" height="4.50191329"></rect>
                                <path d="M38.4804227,55.1472561 L29.4473505,55.1472561 C28.2020309,55.1472561 27.1890825,54.1378235 27.1890825,52.8962994 L27.1890825,47.2691441 C27.1890825,46.0278564 28.2017938,45.0181875 29.4473505,45.0181875 L38.4801856,45.0181875 C39.7255052,45.0181875 40.7384536,46.0276201 40.7384536,47.2691441 L40.7384536,52.8965358 C40.7386907,54.1378235 39.7257423,55.1472561 38.4804227,55.1472561 L38.4804227,55.1472561 Z" id="Shape" fill="#0074DE"></path>
                            </g>
                        </g>
                    </g>
                </g>
            </g>
        </g>
    </g>
</svg>